<?xml version="1.0" standalone="no"?>
<!DOCTYPE svg PUBLIC "-//W3C//DTD SVG 20010904//EN"
 "http://www.w3.org/TR/2001/REC-SVG-20010904/DTD/svg10.dtd">
<svg version="1.0" xmlns="http://www.w3.org/2000/svg"
 width="500.000000pt" height="500.000000pt" viewBox="0 0 500.000000 500.000000"
 preserveAspectRatio="xMidYMid meet">

<g transform="translate(0.000000,500.000000) scale(0.100000,-0.100000)"
fill="#000000" stroke="none">
<path d="M2357 1843 c-3 -614 -5 -706 -20 -761 -31 -115 -85 -195 -161 -235
-35 -19 -57 -22 -147 -22 -105 0 -108 1 -188 41 l-81 42 0 -219 0 -218 68 -21
c262 -82 579 -24 753 138 142 131 217 306 240 562 6 68 9 374 7 750 l-3 635
-232 3 -232 2 -4 -697z"/>
<path d="M3090 2345 l0 -195 295 0 295 0 0 -850 0 -850 235 0 235 0 0 850 0
850 298 2 297 3 0 190 0 190 -827 3 -828 2 0 -195z"/>
</g>
</svg>
